#!OML:ASF E:\pregnant2\Project 1\Capture day 1\Session 1\pregnant2.ASF
:FULLY-SPECIFIED
:DEGREES
667
root 4.14543 17.0793 44.337 38.2504 19.3904 0.293824
lowerback -27.8652 -1.90634 -1.06314
upperback -18.6216 -1.80488 0.619669
thorax -5.6678 -0.593286 0.871375
lowerneck -12.1313 -0.535948 -1.89255
upperneck 41.3259 -0.0847726 0.481811
head 17.112 -0.149006 0.582584
rclavicle -1.01877e-014 2.47487e-014
rhumerus 5.28824 -4.83274 -25.9474
rradius 58.1669
rwrist -30.859
rhand -11.7471 -31.0683
rfingers 7.12502
rthumb 14.3007 -60.5558
lclavicle -1.01877e-014 2.47487e-014
lhumerus 9.81969 7.3553 22.6639
lradius 69.3539
lwrist 34.8323
lhand -13.9034 35.8458
lfingers 7.12502
lthumb 12.2222 65.4686
rfemur -47.3384 9.6652 13.4127
rtibia 23.9416
rfoot -14.0573 -18.2552
rtoes -2.05975
lfemur -49.2189 -14.9587 -12.7328
ltibia 20.672
lfoot -4.80984 14.0428
ltoes -17.6563
668
root 4.14627 17.0791 44.3337 38.2053 19.3531 0.28788
lowerback -27.8412 -1.90852 -1.03217
upperback -18.6597 -1.81492 0.630742
thorax -5.72549 -0.600404 0.865076
lowerneck -12.1229 -0.581803 -1.97109
upperneck 41.3886 -0.111454 0.430085
head 17.1466 -0.180792 0.568774
rclavicle -4.38817e-014 -3.57812e-014
rhumerus 5.83963 -4.47612 -26.1443
rradius 60.2526
rwrist -31.5673
rhand -11.8821 -30.9911
rfingers 7.12502
rthumb 14.1706 -60.4878
lclavicle -4.38817e-014 -3.57812e-014
lhumerus 10.4089 6.81673 22.8877
lradius 71.1036
lwrist 34.5639
lhand -13.3212 35.1409
lfingers 7.12502
lthumb 12.7835 64.7295
rfemur -47.3057 9.69638 13.3963
rtibia 23.9359
rfoot -14.0505 -18.2571
rtoes -2.02668
lfemur -49.1773 -14.9406 -12.7629
ltibia 20.6762
lfoot -4.80877 14.046
ltoes -17.6542
669
root 4.14713 17.0792 44.3306 38.1602 19.3204 0.285172
lowerback -27.8181 -1.91522 -1.00594
upperback -18.6988 -1.8296 0.644568
thorax -5.78358 -0.609225 0.863481
lowerneck -12.1134 -0.624402 -2.04738
upperneck 41.4531 -0.133857 0.378822
head 17.182 -0.210403 0.55547
rclavicle 2.35684e-014 9.0944e-015
rhumerus 6.36729 -4.0083 -26.3047
rradius 62.2971
rwrist -32.0385
rhand -12.0089 -30.7152
rfingers 7.12502
rthumb 14.0485 -60.2204
lclavicle 2.35684e-014 9.0944e-015
lhumerus 10.9976 6.22604 23.1008
lradius 72.8004
lwrist 34.1265
lhand -12.5978 34.3732
lfingers 7.12502
lthumb 13.4809 63.9169
rfemur -47.2705 9.71989 13.3822
rtibia 23.9326
rfoot -14.0559 -18.2539
rtoes -1.91679
lfemur -49.1298 -14.9252 -12.7965
ltibia 20.6692
lfoot -4.7976 14.0444
ltoes -17.6782
670
root 4.14794 17.0796 44.3278 38.117 19.2913 0.286212
lowerback -27.802 -1.92742 -0.988283
upperback -18.7351 -1.84935 0.661793
thorax -5.83479 -0.619604 0.869209
lowerneck -12.1063 -0.664165 -2.114
upperneck 41.5161 -0.151741 0.320242
head 17.2171 -0.237657 0.537799
rclavicle -1.43622e-014 -1.65985e-014
rhumerus 6.92234 -3.52219 -26.4796
rradius 64.261
rwrist -32.1789
rhand -12.0558 -30.2758
rfingers 7.12502
rthumb 14.0032 -59.7842
lclavicle -1.43622e-014 -1.65985e-014
lhumerus 11.5753 5.56055 23.2761
lradius 74.4567
lwrist 33.5432
lhand -11.8232 33.5906
lfingers 7.12502
lthumb 14.2274 63.0833
rfemur -47.2344 9.74055 13.366
rtibia 23.9304
rfoot -14.0674 -18.2522
rtoes -1.78199
lfemur -49.0779 -14.9109 -12.8341
ltibia 20.6548
lfoot -4.78316 14.0377
ltoes -17.7059
671
root 4.14845 17.08 44.3249 38.0776 19.2629 0.290562
lowerback -27.7865 -1.94304 -0.97912
upperback -18.7697 -1.87167 0.680388
thorax -5.88336 -0.630385 0.880661
lowerneck -12.1061 -0.701018 -2.1737
upperneck 41.5788 -0.165295 0.257674
head 17.2539 -0.262604 0.517745
rclavicle 8.31168e-015 -1.20265e-014
rhumerus 7.50766 -3.0228 -26.6734
rradius 66.1466
rwrist -32.0199
rhand -12.0535 -29.7179
rfingers 7.12502
rthumb 14.0054 -59.2261
lclavicle 8.31168e-015 -1.20265e-014
lhumerus 12.1477 4.80551 23.4013
lradius 76.0748
lwrist 32.8437
lhand -11.1203 32.8473
lfingers 7.12502
lthumb 14.9046 62.2911
rfemur -47.2032 9.76565 13.342
rtibia 23.9284
rfoot -14.0805 -18.2583
rtoes -1.63715
lfemur -49.0265 -14.8946 -12.8759
ltibia 20.6374
lfoot -4.76796 14.0261
ltoes -17.7342
